<svg width="34" height="36" viewBox="0 0 34 36" fill="none" xmlns="http://www.w3.org/2000/svg">
<rect width="34" height="36" rx="8" fill="white"/>
<g clip-path="url(#clip0_102_10)">
<path d="M14.1187 19.2312C12.8963 18.4259 11.4639 17.9977 10 18C8.42875 18 6.955 18.4237 5.75 19.25C5.75 17.7726 6.04099 16.3097 6.60636 14.9448C7.17172 13.5799 8.00039 12.3397 9.04505 11.295C10.0897 10.2504 11.3299 9.42172 12.6948 8.85636C14.0597 8.29099 15.5226 8 17 8C18.4774 8 19.9403 8.29099 21.3052 8.85636C22.6701 9.42172 23.9103 10.2504 24.955 11.295C25.9996 12.3397 26.8283 13.5799 27.3936 14.9448C27.959 16.3097 28.25 17.7726 28.25 19.25C27.0425 18.42 25.575 18 24 18C22.7838 17.9998 21.5858 18.2953 20.5093 18.8611C19.4327 19.427 18.5099 20.2461 17.8204 21.2479C17.1309 22.2498 16.6953 23.4043 16.5513 24.6119C16.4073 25.8196 16.5592 27.0441 16.9937 28.18" stroke="black" stroke-width="2.125" stroke-linecap="round" stroke-linejoin="round"/>
</g>
<defs>
<clipPath id="clip0_102_10">
<rect width="30" height="30" fill="white" transform="translate(2 3)"/>
</clipPath>
</defs>
</svg>
